/* XPM */
static char * TrayIcon_xpm[] = {
"16 16 81 1",
" 	c None",
".	c #636363",
"+	c #767676",
"@	c #7B7B7B",
"#	c #797979",
"$	c #6E6E6E",
"%	c #525252",
"&	c #A7A7A7",
"*	c #4F4F4F",
"=	c #6F6F6F",
"-	c #868686",
";	c #818181",
">	c #565656",
",	c #828282",
"'	c #919191",
")	c #464646",
"!	c #8B8B8B",
"~	c #FFFFFF",
"{	c #292929",
"]	c #F2F2F2",
"^	c #616161",
"/	c #A3A3A3",
"(	c #313131",
"_	c #191919",
":	c #C6C6C6",
"<	c #686868",
"[	c #FDFDFD",
"}	c #9E9E9E",
"|	c #787878",
"1	c #888888",
"2	c #EEEEEE",
"3	c #B2B2B2",
"4	c #555555",
"5	c #111111",
"6	c #757575",
"7	c #B1B4B4",
"8	c #BDC0C1",
"9	c #707171",
"0	c #A1A1A1",
"a	c #2F2F2F",
"b	c #7F7F7F",
"c	c #987A77",
"d	c #697E81",
"e	c #FEFFFF",
"f	c #1F1F1F",
"g	c #373737",
"h	c #838383",
"i	c #303030",
"j	c #FEFEFE",
"k	c #FF786A",
"l	c #5D0000",
"m	c #8C8C8C",
"n	c #D2D3D3",
"o	c #444343",
"p	c #2E2E2E",
"q	c #646464",
"r	c #000000",
"s	c #7C7E7D",
"t	c #7F534F",
"u	c #FF9489",
"v	c #FFD0CC",
"w	c #1A1A1A",
"x	c #1E1E1E",
"y	c #FF8378",
"z	c #E8E8E8",
"A	c #4E4E4E",
"B	c #141414",
"C	c #090909",
"D	c #F0F0F0",
"E	c #454545",
"F	c #727272",
"G	c #121212",
"H	c #484848",
"I	c #020202",
"J	c #ABABAB",
"K	c #F1F1F1",
"L	c #656565",
"M	c #0C0C0C",
"N	c #101010",
"O	c #050505",
"P	c #040404",
"     .+@#$      ",
"   %&*=-;>,'    ",
"  )!;~~{~~]^/(  ",
" _':~~~~~<[~^}  ",
" |1~2^~~33~~~<4 ",
"56~~~78~9~~~~}0 ",
"ab~~~~cde~~~~~@f",
"ghi~j~kl~~~~mnop",
"iq~~j~rstuv~~~p{",
"wx~~~~~~~~vy~zAB",
"rCD~~~jjje~~~EF ",
" Gr~~~~~~~~~~r* ",
"  rp~~~m~~~~rH  ",
"  IrrJ~K~~LrMN  ",
"    rrrrrrrO    ",
"      rrrP      "};
