/* XPM */
static char * TrayIcon_xpm[] = {
"32 32 64 1",
" 	c None",
".	c #000000",
"+	c #010101",
"@	c #020202",
"#	c #030303",
"$	c #505050",
"%	c #949494",
"&	c #9F9F9F",
"*	c #ACACAC",
"=	c #050505",
"-	c #939393",
";	c #FFFFFF",
">	c #FCFCFC",
",	c #FAFAFA",
"'	c #515151",
")	c #969696",
"!	c #CECECE",
"~	c #BCBCBC",
"{	c #7A7A7A",
"]	c #040404",
"^	c #070707",
"/	c #7F7F7F",
"(	c #525252",
"_	c #989898",
":	c #CFCFCF",
"<	c #0A0A0A",
"[	c #959595",
"}	c #535353",
"|	c #9A9A9A",
"1	c #929292",
"2	c #9D9D9D",
"3	c #A9A9A9",
"4	c #787878",
"5	c #F0F0F0",
"6	c #F7F7F7",
"7	c #383838",
"8	c #707070",
"9	c #B7B7B7",
"0	c #878787",
"a	c #101010",
"b	c #C7C7C7",
"c	c #909090",
"d	c #A7A7A7",
"e	c #9B9B9B",
"f	c #EFEFEF",
"g	c #424242",
"h	c #7C7C7C",
"i	c #C2C2C2",
"j	c #868686",
"k	c #EEEEEE",
"l	c #F6F6F6",
"m	c #414141",
"n	c #858585",
"o	c #ECECEC",
"p	c #F5F5F5",
"q	c #404040",
"r	c #C1C1C1",
"s	c #848484",
"t	c #EAEAEA",
"u	c #F1F1F1",
"v	c #3E3E3E",
"w	c #767676",
"x	c #818181",
"y	c #8F8F8F",
"          ...........           ",
"         .............          ",
"        .+@#########@+.         ",
"       ..$%&*******&%$..        ",
"      .@=-;;;>,>;;;;;-=@.       ",
"     ..')!;;;~{~;;;;;!)'..      ",
"    .]^%;;;;;/./;;;;;;;%^].     ",
"   ..(_:;;;;;/./;;;;;;;:_(..    ",
"  .=<[;;;;;;;/./;;;;;;;;;[<=.   ",
" ..}|:;;;;;;;/./;;;;;;;;;:|}..  ",
"...1;;;;;;;;;/./;;;;;;;;;;;1....",
"...2;;;;;;;;;/./;;;;;;;;;;;2....",
"...3;;;;;;;;;/./;;;;;;;;;;;3....",
"...3;;;;;;;;;/./;;;;;;;;;;;3....",
"...3;;;;;;;;;/.45555555556;3....",
"...3;;;;;;;;;/.78888888889;3....",
"...3;;;;;;;;;0aaaaaaaaaaa0;3....",
"...3;;;;;;;;;bcccccccccccb;3....",
"...d;;;;;;;;;;;;;;;;;;;;;;;d....",
"...e;;;;;;;;;;;;;;;;;;;;;;;e....",
" ..0f6;;;;;;;;;;;;;;;;;;;6f0..  ",
" ..ghi;;;;;;;;;;;;;;;;;;;ihg.   ",
"  ...jkl;;;;;;;;;;;;;;;lkj...   ",
"   ..m{i;;;;;;;;;;;;;;;i{m..    ",
"    ...nop;;;;;;;;;;;pon...     ",
"     ..q4r;;;;;;;;;;;r4q..      ",
"      ...stkuuuuuuukts...       ",
"       ..vwxyyyyyyyxwv..        ",
"        ...............         ",
"          ...........           ",
"          ...........           ",
"          ...........           "};
