/* XPM */
static char * A_xpm[] = {
"32 32 175 2",
"  	c None",
". 	c #4E4E4E",
"+ 	c #575757",
"@ 	c #5E5E5E",
"# 	c #686868",
"$ 	c #636363",
"% 	c #585858",
"& 	c #494949",
"* 	c #1D1D1D",
"= 	c #909090",
"- 	c #929292",
"; 	c #757575",
"> 	c #4D4D4D",
", 	c #656565",
"' 	c #878787",
") 	c #6B6B6B",
"! 	c #5B5B5B",
"~ 	c #4A4A4A",
"{ 	c #565656",
"] 	c #666666",
"^ 	c #7E7E7E",
"/ 	c #7F7F7F",
"( 	c #353535",
"_ 	c #2B2B2B",
": 	c #898989",
"< 	c #3E3E3E",
"[ 	c #747474",
"} 	c #A5A5A5",
"| 	c #C5C5C5",
"1 	c #DDDDDD",
"2 	c #CDCDCD",
"3 	c #B4B4B4",
"4 	c #525252",
"5 	c #545454",
"6 	c #8F8F8F",
"7 	c #313131",
"8 	c #737373",
"9 	c #4C4C4C",
"0 	c #BEBEBE",
"a 	c #F5F5F5",
"b 	c #F7F7F7",
"c 	c #F9F9F9",
"d 	c #FAFAFA",
"e 	c #000000",
"f 	c #FBFBFB",
"g 	c #F8F8F8",
"h 	c #696969",
"i 	c #5D5D5D",
"j 	c #919191",
"k 	c #6E6E6E",
"l 	c #0D0D0D",
"m 	c #252525",
"n 	c #5A5A5A",
"o 	c #9D9D9D",
"p 	c #FFFFFF",
"q 	c #CBCBCB",
"r 	c #464646",
"s 	c #8E8E8E",
"t 	c #676767",
"u 	c #020202",
"v 	c #101010",
"w 	c #888888",
"x 	c #5F5F5F",
"y 	c #CCCCCC",
"z 	c #FEFEFE",
"A 	c #E7E7E7",
"B 	c #8C8C8C",
"C 	c #606060",
"D 	c #BABABA",
"E 	c #C8C8C8",
"F 	c #E6E6E6",
"G 	c #515151",
"H 	c #1F1F1F",
"I 	c #1A1A1A",
"J 	c #7C7C7C",
"K 	c #131313",
"L 	c #D0D0D0",
"M 	c #F4F4F4",
"N 	c #AFAFAF",
"O 	c #303030",
"P 	c #FDFDFD",
"Q 	c #7A7A7A",
"R 	c #1E1E1E",
"S 	c #030303",
"T 	c #8A8A8A",
"U 	c #727272",
"V 	c #ACACAC",
"W 	c #E5E5E5",
"X 	c #141414",
"Y 	c #EAEAEA",
"Z 	c #272727",
"` 	c #404040",
" .	c #F2F2F2",
"..	c #7D7D7D",
"+.	c #393939",
"@.	c #8D8D8D",
"#.	c #3B3B3B",
"$.	c #FCFCFC",
"%.	c #828282",
"&.	c #010101",
"*.	c #626262",
"=.	c #0F0F0F",
"-.	c #151515",
";.	c #A9A9A9",
">.	c #6D6D6D",
",.	c #1B1B1B",
"'.	c #949494",
").	c #D7D7D7",
"!.	c #232323",
"~.	c #FEFFFF",
"{.	c #FAFCFC",
"].	c #DFDFDF",
"^.	c #444444",
"/.	c #2F2F2F",
"(.	c #4F4F4F",
"_.	c #FF6353",
":.	c #C6CFCF",
"<.	c #1B1E1E",
"[.	c #F3F3F3",
"}.	c #2A2A2A",
"|.	c #3D3D3D",
"1.	c #424242",
"2.	c #C1C1C1",
"3.	c #FFF6F6",
"4.	c #FFFEFE",
"5.	c #343636",
"6.	c #EBEBEB",
"7.	c #2E2E2E",
"8.	c #616161",
"9.	c #343434",
"0.	c #B2B2B2",
"a.	c #FFF3F3",
"b.	c #E2D3D3",
"c.	c #414C4C",
"d.	c #737E7E",
"e.	c #535353",
"f.	c #999999",
"g.	c #DDDFDF",
"h.	c #E8E8E8",
"i.	c #E4E4E4",
"j.	c #0C0C0C",
"k.	c #363636",
"l.	c #3F3F3F",
"m.	c #B9B9B9",
"n.	c #191919",
"o.	c #161616",
"p.	c #505050",
"q.	c #222222",
"r.	c #090909",
"s.	c #C4C4C4",
"t.	c #1C1C1C",
"u.	c #454545",
"v.	c #6C6C6C",
"w.	c #474747",
"x.	c #080808",
"y.	c #6F6F6F",
"z.	c #F6F6F6",
"A.	c #0B0B0B",
"B.	c #838383",
"C.	c #070707",
"D.	c #D6D6D6",
"E.	c #212121",
"F.	c #0A0A0A",
"G.	c #040404",
"H.	c #060606",
"I.	c #111111",
"J.	c #E3E3E3",
"K.	c #959595",
"L.	c #202020",
"M.	c #0E0E0E",
"N.	c #A7A7A7",
"O.	c #D9D9D9",
"P.	c #DBDBDB",
"Q.	c #E9E9E9",
"R.	c #171717",
"                        . + @ # $ % &                           ",
"                  * @ = - - - - - - - - ; >                     ",
"              * , - - - ' ) ! ~ { ] ^ - - - / (                 ",
"            _ : - - ! < [ } | 1 2 3 - 4 5 6 - - !               ",
"          7 = - 8 9 0 a b c d e f d g a 1 h i j - k l           ",
"        m 6 - n o p p p p p p e p p p p p p q r s - t u         ",
"      v w - x y p p p z z z p p p z p p p p p A ~ B - &         ",
"    e i - C D p p z z z z z z z z z p E l p p p F G - - H       ",
"    I j J j p p z z z p p z z z z p p K p p z p p L ! - # e     ",
"  e x - . p z p z z p p M p z z z p N O p z z z P p Q : - R     ",
"  S T U V p z z z z p W X p p z p p K p p z z z p z Y 5 - + e   ",
"  Z - `  .f p z z z p p ..+.p p p @.#.p z z z z z $.p $ = %.&.  ",
"e ~ 6 *.a d p z z z z p p =.p p p -.p p z z z z z z p ;.>.- ,.  ",
"e % >.'.a f z z z z z z p ).* p !.1 p z z z ~.~.~.p {.].^.- /.  ",
"e t (.V a p p z z z z z p p _.:.<.p p ~.~.~.~.p p p p [.}.- |.  ",
"e k 1.2.e e p z z z z z ~.3.p _._.p p p p p p p 4.e 5.6.7.- ~ e ",
"e 8.9.0.a p p z z z z z ~.a.b.c.d._.~.~.~.~.~.~.p p z a K - ^.e ",
"e e.( f.a c p z z z z z z p g.p h.p _._.z z z z z f g i.j.- k.  ",
"e l.1.>.a a z z z z z z z p p p p p z z _._.z z p c p m.n.- Z   ",
"  o.p.q.a b d p z z z z z z z z z z z z z z _.z z M p >.Z 6 r.  ",
"  e i e s.p a z z z z z z z z z z z z z z z z p g d p t.u.v.e   ",
"  e w.x.r p g b z z z z z z z z z z z z z z p d a p j e y.< e   ",
"    x.7.e D p z.b z p z z z z z z z z z z z c M p W =.A.B.C.    ",
"    e ( e X D.p a a $.z p z z z z z p p z b a P P ^.e 9 < e     ",
"      S E.e }.h.p b M b d P p p p P d g M z.z p % e F.[ G.      ",
"      e j.H.e ,.| p P z.a M $.e $.M a a d p F u.e e + I.        ",
"        e v e e H.v.J.p p d p ( p g z p P K.I e e k.L.          ",
"          e r.e e e M.! N.O.a P.a Q.| U H e e e ,.R.e           ",
"            e G.&.e e e e e &.L.u e e e e e e E.j.              ",
"                e u e e e e e e e e e e e F.A.e                 ",
"                    e e &.e e e e e e F.u e                     ",
"                          e e e e e                             "};
